<svg width="2048" height="2048" viewBox="0 0 2048 2048" fill="none" xmlns="http://www.w3.org/2000/svg">
<g clip-path="url(#clip0_1_792)">
<path d="M1132.7 955.562L646.445 1976.37C766.472 2023.85 894.414 2048.17 1023.5 2048.04C1589.31 2048.04 2048 1589.58 2048 1024.05C2048 523.198 1688.23 106.36 1212.87 17.5601L816.1 945.533L1132.7 955.562Z" fill="#B51F1F"/>
<path opacity="0.1" d="M1742.01 1480.54L1317.78 1469.84C1249.54 1438.39 1108.88 1416.84 946.404 1416.84C717.078 1416.84 531.176 1459.67 531.176 1512.81C531.176 1565.95 717.186 1608.68 946.404 1608.68C1112.17 1608.68 1255.22 1586.26 1321.82 1553.78C1433.8 1555.39 1792.14 1559.35 1813.64 1545.25C1839.14 1528.55 1742.01 1480.54 1742.01 1480.54Z" fill="black"/>
<path opacity="0.1" d="M280.924 1381.29C272.425 1395.78 235.859 1425.51 250.821 1433.08C302.921 1459.45 555.136 1438.64 555.136 1438.64L519.427 1381.29C519.427 1381.29 311.098 1329.86 280.924 1381.29Z" fill="black"/>
<path d="M1751.22 1359.68C1751.22 1422.29 1721.13 1453.58 1660.94 1453.56H1352.9C1294.4 1453.56 1265.15 1422.26 1265.15 1359.68V520.912C1265.15 458.004 1294.4 426.492 1352.9 426.375H1661.01C1721.2 426.375 1751.29 457.888 1751.29 520.912V761.15H1604.12V558.447H1412.88V1321.62H1604.12V1105.85H1751.22V1359.68Z" fill="white"/>
<path d="M1246.36 928.33C1212.94 879.718 1159.19 796.557 1143.45 742.735C1120.27 663.286 1122.77 562.994 1122.77 562.994C1122.77 519.214 1105.37 477.227 1074.4 446.27C1043.43 415.313 1001.42 397.922 957.616 397.922C913.814 397.922 871.806 415.313 840.833 446.27C809.861 477.227 792.46 519.214 792.46 562.994C792.46 563.351 792.46 563.672 792.46 563.993C792.71 574.701 806.316 694.552 780.855 766.969C757.43 833.534 668.728 927.08 655.265 946.318L653.23 949.209C609.503 1011.54 586.095 1085.84 586.204 1161.96C586.204 1294.56 597.166 1448.49 701.794 1504.78C758.929 1535.51 885.162 1501.42 957.616 1501.42C1034.53 1501.42 1163.02 1546.57 1222.29 1512.13C1321.07 1454.7 1329.03 1290.1 1329.03 1161.96C1329.19 1076.9 1299.99 994.383 1246.36 928.33V928.33Z" fill="url(#paint0_linear_1_792)"/>
<path d="M1047.75 653.543C1047.75 699.941 1024.57 737.524 996.04 737.524C967.508 737.524 944.297 699.941 944.297 653.543C944.297 607.144 967.472 572.916 996.04 572.916C1024.61 572.916 1047.75 607.18 1047.75 653.543Z" fill="white"/>
<path d="M865.558 718.893C889.086 718.893 908.159 686.215 908.159 645.905C908.159 605.594 889.086 572.916 865.558 572.916C842.03 572.916 822.957 605.594 822.957 645.905C822.957 686.215 842.03 718.893 865.558 718.893Z" fill="white"/>
<path d="M1209.22 1008.56L1208.87 1008.06C1201.98 997.67 1194.47 987.705 1186.37 978.226C1160.8 943.891 1119.95 887.57 1096.38 847.81C1078.47 816.8 1062.22 784.859 1047.71 752.122L827.277 748.339C824.846 783.138 816.034 817.195 801.28 848.809C777.034 899.634 717.863 991.967 717.863 991.967C689.954 1028.77 670.937 1071.52 662.3 1116.89C659.685 1098.21 658.979 1079.31 660.193 1060.49C663.764 1010.24 721.684 942.463 721.684 942.463C721.684 942.463 660.621 984.293 647.23 1060.49C642.078 1093.07 645.6 1126.43 657.443 1157.22C657.157 1162.54 656.943 1167.93 656.943 1173.21C656.868 1220.08 667.759 1266.33 688.747 1308.25C709.735 1350.17 740.238 1386.61 777.821 1414.65C815.404 1442.69 859.027 1461.57 905.205 1469.76C951.384 1477.95 998.84 1475.24 1043.78 1461.84C1088.73 1448.45 1129.92 1424.73 1164.06 1392.59C1198.2 1360.45 1224.35 1320.78 1240.43 1276.74C1256.5 1232.7 1262.05 1185.52 1256.63 1138.96C1251.21 1092.39 1234.98 1047.74 1209.22 1008.56V1008.56Z" fill="url(#paint1_radial_1_792)"/>
<path opacity="0.1" d="M1072.1 901.668C1072.1 901.668 1023.71 970.659 1028 981.51C1031.32 989.861 1136.81 993.787 1158.55 1024.7C1180.3 1055.6 1217.37 1075.95 1258.54 1084.3C1284.83 1089.21 1311.81 1089.21 1338.1 1084.3C1338.1 1084.3 1229.83 961.879 1222.51 941.535C1215.19 921.191 1072.1 901.668 1072.1 901.668Z" fill="black"/>
<path opacity="0.1" d="M1029.28 1501.96C1009.5 1476.98 802.423 1459.74 805.315 1443.46C808.886 1422.72 891.018 1430.51 957.615 1428.4C1017.04 1426.54 1057.6 1398.24 1068.56 1386.07C1119.06 1329.25 1139.3 1311.73 1183.94 1315.9C1245.65 1321.65 1255.65 1287.67 1279.03 1311.08C1302.42 1334.5 1337.56 1310.4 1367.77 1352.06C1397.98 1393.71 1366.09 1397.17 1367.77 1440.64C1369.45 1484.11 1318.82 1420.65 1305.78 1467.45C1292.75 1514.24 1280.25 1506.96 1221.72 1523.66C1163.19 1540.36 1029.28 1501.96 1029.28 1501.96Z" fill="black"/>
<path opacity="0.1" d="M796.211 1297.66C796.211 1297.66 806.71 1361.41 788.462 1373.97C758.324 1394.71 768.965 1415.44 768.965 1415.44H715.187L669.336 1325.54L756.359 1317.58L796.211 1297.66Z" fill="black"/>
<path d="M1068.42 1532.4C1011.86 1458.49 1085.13 1428.01 1123.59 1367.83C1162.05 1307.66 1191.44 1191.52 1249.82 1198.23C1311.39 1205.37 1292.46 1233.31 1315.85 1256.69C1339.24 1280.07 1374.38 1255.87 1404.48 1297.63C1434.58 1339.39 1402.8 1342.78 1404.48 1386.21C1406.16 1429.65 1430.51 1431.33 1417.48 1478.12C1404.45 1524.91 1332.6 1498.18 1274.07 1514.88C1215.54 1531.58 1125.27 1606.71 1068.42 1532.4Z" fill="url(#paint2_linear_1_792)"/>
<path d="M866.628 690.661C877.317 690.661 885.982 675.721 885.982 657.29C885.982 638.86 877.317 623.919 866.628 623.919C855.939 623.919 847.273 638.86 847.273 657.29C847.273 675.721 855.939 690.661 866.628 690.661Z" fill="#1D1D1B"/>
<path d="M996.004 691.054C1007.28 691.054 1016.43 675.937 1016.43 657.29C1016.43 638.643 1007.28 623.526 996.004 623.526C984.723 623.526 975.578 638.643 975.578 657.29C975.578 675.937 984.723 691.054 996.004 691.054Z" fill="#1D1D1B"/>
<path opacity="0.1" d="M803.246 737.346C803.246 737.346 860.917 849.059 880.985 856.555C901.054 864.05 1024.47 776.356 1065.96 748.731C1090.78 732.242 929.621 737.346 929.621 737.346H803.246Z" fill="black"/>
<path d="M907.732 657.326C888.02 657.326 803.246 705.509 803.246 730.85C803.246 752.836 877.986 817.758 896.876 817.758C930.943 817.758 1074.92 765.114 1074.92 737.524C1074.96 712.183 951.511 657.326 907.732 657.326Z" fill="url(#paint3_linear_1_792)"/>
<path d="M1074.96 701.155C1074.96 701.155 994.859 696.408 987.753 694.48C980.647 692.553 928.154 652.722 928.154 652.722C928.154 652.722 882.982 686.807 872.376 691.09C864.128 694.445 778.961 690.662 778.961 690.662V566.242L1074.96 572.916V701.155Z" fill="black"/>
<path d="M791.531 577.092L792.924 678.312L863.164 680.275L928.119 635.84L990.682 680.275L1060.92 684.701V583.802L791.531 577.092Z" fill="#0E0F22"/>
<path d="M933.978 575.129H922.266V647.475H933.978V575.129Z" fill="black"/>
<path d="M1123.23 599.863L1065.06 615.924L1060.92 600.577L1122.81 583.802L1123.23 599.863Z" fill="black"/>
<path d="M1033.28 583.124L1060.92 622.063V676.242L997.609 582.231L1033.28 583.124Z" fill="#57586C"/>
<path d="M989.397 582.017L978.113 581.732L1046.21 683.773L1059.07 684.701L989.397 582.017Z" fill="#57586C"/>
<path d="M898.087 579.733L922.334 613.925L922.262 639.837L909.264 648.724L862.199 578.841L898.087 579.733Z" fill="#57586C"/>
<path d="M851.524 578.305H840.383L894.232 659.003L902.446 653.4L851.524 578.305Z" fill="#57586C"/>
<path d="M1248.29 592.725L1269.04 527.267L1265.04 525.982L1322.64 344.278L1310.57 340.816L1253.07 522.199L1249.5 521.092L1228.15 588.37L1139.91 569.347L1133.88 588.477L1152.73 623.098L1088.63 831.285L1050.53 851.344L1045.25 868.118L1166.3 895.672L1261.39 595.544L1248.29 592.725Z" fill="#575756"/>
<path d="M1166.3 895.672L1192.87 945.497L1083.46 915.802L1045.25 868.118L1166.3 895.672Z" fill="#3C3C3B"/>
<path d="M1261.39 595.544L1286.14 651.294L1192.87 945.497L1166.3 895.672L1261.39 595.544Z" fill="#706F6F"/>
<path d="M1139.23 715.538C1151.48 671.745 1213.26 694.373 1224.76 697.693C1236.26 701.012 1242.61 726.246 1251.93 754.549C1261.25 782.852 1337.46 833.641 1378.13 939.751C1407.84 1017.24 1397.77 1114.64 1316.28 1086.8C1279.46 1074.16 1227.76 986.578 1210.51 958.524C1191.69 927.901 1177.59 840.279 1189.08 844.776C1238.01 863.55 1253.57 892.674 1248.72 884.858C1225.69 847.56 1199.94 801.304 1190.51 791.703C1181.08 782.103 1128.52 753.407 1139.23 715.538Z" fill="#1D1D1B"/>
<path d="M1197.33 931.47L1222.44 852.271L1185.44 835.282L1168.77 887.856L1197.33 931.47Z" fill="#706F6F"/>
<path d="M989.254 425.868C1010.95 428.528 1031.4 437.445 1048.1 451.53C1065.42 465.973 1078.82 484.545 1087.06 505.531C1087.06 505.531 1064.03 476.478 1040.21 458.311C1024 446.334 1006.97 435.494 989.254 425.868V425.868Z" fill="white"/>
<path d="M705.724 1224.14C687.854 1213.8 674.181 1197.52 667.087 1178.13V1178.13C667.087 1178.13 636.055 1124.35 647.339 1060.1C660.695 983.937 721.758 942.106 721.758 942.106C721.758 942.106 663.837 1009.92 660.302 1060.1C659.002 1080.26 659.9 1100.49 662.98 1120.46C667.979 1084.76 683.192 1050.71 688.441 1031.98C693.869 1012.6 758.645 847.025 758.645 847.025C758.645 847.025 670.586 909.413 626.521 1032.62C597.275 1114.5 575.278 1293.17 644.947 1331.78C736.113 1382.07 792.069 1353.48 803.782 1303.23C815.495 1252.98 756.753 1255.69 705.724 1224.14Z" fill="#1D1D1B"/>
<path d="M817.851 1532.4C874.378 1458.49 801.139 1428.01 762.68 1367.83C724.221 1307.66 694.832 1191.52 636.447 1198.23C574.884 1205.37 593.81 1233.31 570.385 1256.69C546.96 1280.07 511.858 1255.87 481.755 1297.63C451.652 1339.39 483.433 1342.78 481.755 1386.21C480.076 1429.65 455.758 1431.33 468.756 1478.12C481.755 1524.91 553.673 1498.18 612.201 1514.88C670.728 1531.58 760.716 1606.71 817.851 1532.4Z" fill="url(#paint4_linear_1_792)"/>
<path d="M1074.92 572.916L1078.06 569.668L782.068 563.137L778.926 566.206L1074.92 572.916Z" fill="#706F6F"/>
<path d="M1078.06 569.668V591.333L1074.92 596.794V572.916L1078.06 569.668Z" fill="#706F6F"/>
<path d="M1122.81 583.802L1122.74 581.054L1078.06 591.333L1074.92 596.794L1122.81 583.802Z" fill="#706F6F"/>
<path d="M1074.92 701.155L1078.35 697.693L1078.71 612.141L1074.92 613.211V701.155Z" fill="#706F6F"/>
<path d="M866.629 755.084C866.629 755.084 873.128 751.087 916.943 753.193C958.223 755.156 967.258 762.437 967.258 762.437C967.258 762.437 960.116 762.437 916.943 760.295C873.771 758.154 866.629 755.084 866.629 755.084Z" fill="#BC7214"/>
<path d="M1024.53 1.18823e-05C458.684 1.18823e-05 0.105469 458.49 0.105469 1024.02C0.105469 1456.1 267.925 1825.64 646.444 1976.01L1119.06 967.126L799.208 957.275L1212.4 17.2032C1150.44 5.72303 1087.55 -0.0356341 1024.53 1.18823e-05V1.18823e-05Z" fill="#006480"/>
<path opacity="0.1" d="M875.233 1481.01C878.804 1468.95 886.446 1459.59 892.588 1447.74C897.623 1438.04 900.73 1427.11 905.586 1417.23C737.753 1421.12 599.093 1448.1 550.457 1484.26L401.407 1493.61C401.407 1493.61 314.919 1529.12 330.595 1546.61C342.094 1559.39 561.206 1548.93 561.206 1548.93C604.057 1577.09 695.58 1594.9 818.741 1604.18C819.122 1602.37 819.76 1600.63 820.634 1599C822.428 1596.18 824.536 1593.57 826.919 1591.22C826.043 1586.93 826.687 1582.46 828.74 1578.59C837.239 1562.13 848.916 1546.47 854.379 1528.62C859.236 1512.81 867.27 1498.57 873.948 1483.44C874.32 1482.6 874.75 1481.79 875.233 1481.01V1481.01Z" fill="black"/>
<path d="M548.695 1471.83H391.426V433.365H548.87L548.695 1471.83Z" fill="white"/>
<path d="M1118.13 959.845C1115.91 959.381 1113.74 958.81 1111.59 958.239C1096.77 960.399 1081.66 959.352 1067.28 955.169C1051.96 957.989 1035.46 960.345 1020.68 955.633C998.189 959.516 975.17 959.116 952.83 954.456C948.055 957.675 942.231 958.952 936.546 958.025C926.762 956.597 917.514 951.993 907.729 951.065C899.516 950.315 891.231 952.314 882.733 951.6C865.699 950.137 849.309 949.494 833.097 955.633C816.885 961.772 805.493 941.357 812.028 928.222C816.157 920.273 820.847 912.628 826.062 905.344C826.47 900.515 827.677 895.788 829.633 891.353C837.489 873.258 849.416 855.662 857.486 836.96C858.292 829.276 861.005 821.915 865.378 815.545C866.489 813.948 867.81 812.507 869.306 811.262C872.372 799.518 877.316 788.345 883.947 778.177C887.537 763.899 892.837 750.106 899.73 737.096C899.018 734.788 898.763 732.363 898.98 729.958C900.159 716.145 906.122 707.258 912.907 695.658C918.615 684.778 923.393 673.436 927.191 661.752L929.333 656.219L947.188 397.244C905.41 400.128 866.283 418.75 837.71 449.349C809.136 479.948 793.245 520.245 793.245 562.102V563.101C793.495 573.808 807.136 693.802 781.64 766.291C758.214 832.927 669.405 926.581 655.907 945.818L653.872 948.745C610.089 1011.14 586.655 1085.54 586.774 1161.75C586.774 1294.49 597.737 1448.6 702.472 1504.92C738.36 1524.23 801.423 1518.02 861.378 1510.67C865.378 1501.67 869.877 1492.82 873.912 1483.72C874.283 1482.87 874.713 1482.05 875.198 1481.26C878.769 1469.19 886.411 1459.84 892.553 1447.99C898.695 1436.14 902.123 1421.8 909.586 1410.27C911.301 1407.63 913.275 1405.17 915.478 1402.92C915.412 1401.37 915.52 1399.83 915.799 1398.31C918.478 1383.36 928.726 1371.15 935.19 1357.66C939.939 1347.77 944.902 1337.92 950.295 1328.32C950.135 1326.84 950.135 1325.34 950.295 1323.86C951.83 1310.76 957.186 1302.45 966.328 1293.24C967.656 1291.94 968.852 1290.52 969.899 1288.99C971.006 1273.11 980.612 1256.65 986.789 1242.59C991.127 1233.18 996.582 1224.32 1003.04 1216.22C1003.35 1213.19 1004.43 1210.29 1006.18 1207.79C1018.57 1189.52 1024.03 1167.03 1033.43 1147.12C1036.8 1140.63 1040.62 1134.38 1044.85 1128.41C1046.92 1125.46 1048.84 1122.4 1050.6 1119.24C1050.89 1118.78 1051.14 1118.28 1051.42 1117.78C1050.76 1112.37 1051.41 1106.89 1053.32 1101.79C1054.54 1098.8 1056.4 1096.11 1058.78 1093.92C1061.15 1091.73 1063.98 1090.09 1067.06 1089.12C1070.15 1080.27 1074.01 1071.7 1078.6 1063.53C1079.03 1061.92 1079.46 1060.32 1079.96 1058.82C1085.07 1042.79 1093.17 1027.88 1103.84 1014.88C1104.56 1008.99 1105.52 1003.07 1106.67 997.035C1109.45 983.831 1115.17 971.424 1123.41 960.737L1118.13 959.845Z" fill="url(#paint5_linear_1_792)"/>
<path d="M1010.04 476.05C1013.61 465.093 1020.75 455.92 1024.32 445.141C1025.83 438.913 1027.8 432.805 1030.21 426.867C1031.6 424.569 1033.14 422.363 1034.82 420.264C1011.23 407.663 984.895 401.091 958.151 401.134C954.58 401.134 950.688 401.312 946.974 401.562L922.656 658.825L923.87 670.924C925.013 667.783 926.156 664.643 927.441 661.502C934.667 640.729 944.776 621.073 957.473 603.111C957.519 601.299 957.795 599.5 958.294 597.757C965.428 574.037 974.629 550.987 985.79 528.873C991.647 517.059 995.253 503.889 1002.54 492.968C1004.59 490.106 1006.93 487.452 1009.5 485.044C1008.91 482.05 1009.09 478.953 1010.04 476.05Z" fill="#646374"/>
<path d="M958.154 597.757C960.689 589.298 963.439 581.089 966.438 572.988C955.206 585.414 948.522 601.28 947.477 617.994C950.512 612.89 953.761 607.929 957.332 603.075C957.374 601.274 957.65 599.487 958.154 597.757V597.757Z" fill="#010101"/>
<path d="M954.69 606.787L949.512 605.074C947.98 609.345 947.207 613.85 947.227 618.387C949.548 614.461 952.048 610.57 954.69 606.787Z" fill="#4B4B5F"/>
<path d="M1118.13 959.845C1115.91 959.381 1113.74 958.81 1111.59 958.239C1096.77 960.399 1081.66 959.352 1067.28 955.169C1051.96 957.989 1035.46 960.345 1020.68 955.633C998.19 959.516 975.17 959.116 952.83 954.456C948.056 957.675 942.231 958.952 936.547 958.025C926.763 956.597 917.514 951.993 907.73 951.065C899.516 950.315 891.232 952.314 882.733 951.6C865.7 950.137 849.309 949.494 833.097 955.633C816.885 961.772 805.494 941.357 812.029 928.223C816.157 920.273 820.847 912.628 826.062 905.344C826.471 900.515 827.677 895.788 829.633 891.353C837.489 873.258 849.416 855.662 857.487 836.96C858.292 829.276 861.005 821.915 865.378 815.545C866.489 813.948 867.811 812.507 869.306 811.262C872.372 799.518 877.316 788.345 883.947 778.176C886.335 768.239 889.683 758.557 893.946 749.267L828.169 748.124C825.71 782.916 816.874 816.96 802.101 848.56C777.855 899.598 718.399 992.038 718.399 992.038C690.422 1028.92 671.378 1071.77 662.764 1117.24C660.119 1098.55 659.401 1079.62 660.621 1060.78C664.192 1010.46 722.184 942.606 722.184 942.606C722.184 942.606 661.085 984.436 647.694 1060.6C640.731 1100.25 649.873 1135.91 657.907 1157.43C657.622 1162.75 657.443 1168.14 657.443 1173.46C657.456 1240.08 679.58 1304.82 720.349 1357.53C761.117 1410.24 818.228 1447.94 882.733 1464.73C885.911 1459.27 889.446 1453.85 892.589 1447.74C898.874 1435.57 902.159 1421.55 909.622 1410.02C911.338 1407.38 913.311 1404.92 915.514 1402.67C915.448 1401.12 915.556 1399.58 915.836 1398.06C918.514 1383.11 928.762 1370.9 935.226 1357.41C939.975 1347.52 944.939 1337.67 950.331 1328.07C950.171 1326.59 950.171 1325.09 950.331 1323.61C951.866 1310.51 957.223 1302.2 966.364 1292.99C967.692 1291.69 968.889 1290.27 969.935 1288.74C971.042 1272.86 980.648 1256.4 986.826 1242.34C991.163 1232.93 996.618 1224.07 1003.07 1215.97C1003.38 1212.94 1004.47 1210.04 1006.22 1207.54C1018.61 1189.27 1024.07 1166.78 1033.46 1146.87C1036.84 1140.38 1040.65 1134.13 1044.89 1128.16C1046.96 1125.21 1048.88 1122.15 1050.64 1118.99C1050.92 1118.53 1051.17 1118.03 1051.46 1117.53C1050.79 1112.12 1051.44 1106.64 1053.35 1101.54C1054.57 1098.55 1056.44 1095.86 1058.81 1093.67C1061.19 1091.48 1064.02 1089.84 1067.1 1088.87C1070.19 1080.02 1074.05 1071.45 1078.63 1063.28C1079.06 1061.67 1079.49 1060.07 1079.99 1058.57C1085.1 1042.54 1093.21 1027.63 1103.88 1014.63C1104.59 1008.74 1105.56 1002.82 1106.7 996.785C1109.48 983.581 1115.21 971.174 1123.45 960.487L1118.13 959.845Z" fill="url(#paint6_radial_1_792)"/>
<path opacity="0.1" d="M892.588 1447.74C895.574 1441.58 898.244 1435.27 900.587 1428.83C851.808 1428.51 808.779 1428.83 806.136 1443.6C804.922 1450.39 839.882 1457.27 882.626 1465.02C885.697 1459.34 889.267 1453.88 892.588 1447.74Z" fill="black"/>
<path opacity="0.1" d="M950.366 1323.5C951.901 1310.4 957.258 1302.09 966.4 1292.88C967.728 1291.59 968.924 1290.16 969.97 1288.63C971.077 1272.75 980.683 1256.3 986.861 1242.23C991.198 1232.82 996.654 1223.97 1003.11 1215.86C1003.42 1212.83 1004.5 1209.93 1006.25 1207.44C1008.64 1203.85 1010.81 1200.12 1012.75 1196.26L799.994 1206.76L758.393 1297.48L764.892 1313.55L757.072 1317.47L669.977 1325.39L715.863 1415.41H769.713C769.713 1415.41 759 1394.67 789.246 1373.9C811.674 1356.38 838.104 1344.7 866.163 1339.92C888.803 1336.14 912.586 1339.49 942.189 1343.2C944.795 1338.07 947.474 1333.03 950.295 1328.04C950.15 1326.53 950.174 1325.01 950.366 1323.5V1323.5Z" fill="black"/>
<path d="M866.449 718.072C889.997 718.072 909.086 685.362 909.086 645.012C909.086 604.662 889.997 571.952 866.449 571.952C842.902 571.952 823.812 604.662 823.812 645.012C823.812 685.362 842.902 718.072 866.449 718.072Z" fill="white"/>
<path d="M867.523 689.841C878.232 689.841 886.913 674.884 886.913 656.434C886.913 637.983 878.232 623.027 867.523 623.027C856.814 623.027 848.133 637.983 848.133 656.434C848.133 674.884 856.814 689.841 867.523 689.841Z" fill="#1E1E1C"/>
<path opacity="0.1" d="M899.696 736.775H804.066C804.066 736.775 830.884 790.883 854.309 827.859C855.416 825.896 856.488 823.968 857.488 822.005C858.354 815.296 861.088 808.964 865.379 803.731C866.523 802.371 867.844 801.171 869.307 800.162C872.472 789.968 877.43 780.42 883.948 771.966C887.615 759.641 892.924 747.864 899.732 736.953L899.696 736.775Z" fill="black"/>
<path d="M947.187 396.922L956.865 400.777L925.976 664.964L914.406 666.891L947.187 396.922Z" fill="#4C4C53"/>
<path d="M706.435 1223.92C688.603 1213.52 674.963 1197.23 667.869 1177.85V1177.85C667.869 1177.85 636.838 1124.02 648.122 1059.71C661.37 983.437 722.505 941.607 722.505 941.607C722.505 941.607 664.513 1009.42 660.942 1059.78C659.662 1079.96 660.56 1100.22 663.62 1120.21C668.655 1084.51 683.867 1050.39 689.116 1031.58C694.544 1012.2 759.392 846.418 759.392 846.418C759.392 846.418 671.262 908.914 627.268 1032.01C597.951 1114.1 575.918 1292.99 645.694 1331.5C736.967 1381.86 792.959 1353.23 804.707 1302.95C816.456 1252.66 757.5 1255.4 706.435 1223.92Z" fill="#1E1E1C"/>
<path d="M1033.43 1147.15C1036.8 1140.66 1040.62 1134.41 1044.85 1128.45C1046.92 1125.49 1048.84 1122.43 1050.6 1119.28C1050.89 1118.81 1051.14 1118.31 1051.42 1117.81C1050.76 1112.41 1051.41 1106.92 1053.32 1101.82C1054.53 1098.82 1056.4 1096.13 1058.78 1093.94C1061.16 1091.75 1064.01 1090.11 1067.1 1089.15C1069.75 1081.55 1072.98 1074.15 1076.74 1067.03L900.516 1081.62L1017.04 1187.34C1022.82 1174.06 1027.28 1160.04 1033.43 1147.15Z" fill="#676767"/>
<path d="M1049.46 1008.24C991.613 1010.46 918.231 1032.12 928.051 1066.1C933.193 1083.94 995.899 1100.4 1052.14 1106.32C1052.47 1104.79 1052.91 1103.29 1053.46 1101.82C1054.68 1098.83 1056.55 1096.15 1058.92 1093.96C1061.3 1091.77 1064.13 1090.13 1067.21 1089.15C1070.3 1080.3 1074.16 1071.74 1078.74 1063.56C1079.17 1061.96 1079.6 1060.35 1080.1 1058.85C1085.2 1042.81 1093.31 1027.89 1103.99 1014.88C1104.35 1012.24 1104.7 1009.56 1105.13 1006.89C1085.67 1007.17 1066.25 1007.6 1049.46 1008.24Z" fill="url(#paint7_linear_1_792)"/>
<path d="M1057.1 956.883C1045 959.23 1032.52 958.803 1020.61 955.633C998.118 959.516 975.098 959.116 952.758 954.456C947.984 957.675 942.159 958.952 936.475 958.025C926.691 956.597 917.442 951.993 907.657 951.065C899.444 950.315 891.16 952.314 882.661 951.6C865.628 950.137 849.237 949.495 833.025 955.633C816.813 961.772 805.422 941.357 811.957 928.223C816.085 920.273 820.775 912.628 825.99 905.344C826.399 900.516 827.605 895.788 829.561 891.354C832.811 883.858 836.703 876.399 840.845 868.939L472.504 871.474L547.779 1245.55H985.432C985.897 1244.59 986.361 1243.59 986.789 1242.63C991.127 1233.22 996.582 1224.36 1003.04 1216.25C1003.35 1213.22 1004.43 1210.32 1006.18 1207.83C1018.57 1189.55 1024.03 1167.07 1033.43 1147.15C1036.8 1140.66 1040.62 1134.41 1044.85 1128.45C1046.92 1125.49 1048.84 1122.43 1050.6 1119.28C1050.89 1118.81 1051.14 1118.31 1051.42 1117.81C1050.76 1112.41 1051.41 1106.92 1053.32 1101.82C1054.53 1098.82 1056.4 1096.13 1058.78 1093.94C1061.16 1091.75 1064.01 1090.11 1067.1 1089.15C1070.05 1080.66 1073.72 1072.43 1078.06 1064.56L1057.1 956.883Z" fill="#4E4D4D"/>
<path d="M985.433 1245.41H547.852L549.78 1276.28H972.257C975.862 1265.67 980.267 1255.35 985.433 1245.41Z" fill="#343434"/>
<path d="M818.493 1532.51C875.092 1458.52 801.745 1427.97 763.251 1367.76C724.756 1307.55 695.403 1191.27 636.875 1197.94C575.277 1205.08 594.203 1233.1 570.777 1256.51C547.352 1279.92 512.179 1255.69 482.183 1297.48C452.187 1339.28 483.861 1342.67 482.183 1386.18C480.504 1429.68 456.151 1431.33 469.185 1478.19C482.218 1525.05 554.173 1498.25 612.772 1514.99C671.371 1531.73 761.572 1606.89 818.493 1532.51Z" fill="url(#paint8_linear_1_792)"/>
<path d="M555.031 1508.46C574.029 1508.74 593.99 1509.67 612.63 1514.99C640.234 1522.87 674.943 1543.75 709.831 1555.82L741.612 1498.1L586.813 1431.4L555.031 1508.46Z" fill="#646374"/>
<path d="M702.901 1249.41L647.48 1281.53L707.294 1385.03L756.537 1356.48C738.468 1324.72 722.042 1282.39 702.901 1249.41Z" fill="#646374"/>
<path d="M1024.29 445.141C1025.8 438.913 1027.77 432.805 1030.18 426.867C1031.56 424.593 1033.08 422.411 1034.75 420.336C1018.73 411.741 1001.36 405.912 983.399 403.097L976.578 458.026C989.042 460.202 1001.09 464.308 1012.29 470.197C1016.11 461.666 1021.39 453.921 1024.29 445.141Z" fill="#4C4C53"/>
<path d="M997.362 452.851C1001.62 452.851 1005.07 449.399 1005.07 445.141C1005.07 440.884 1001.62 437.432 997.362 437.432C993.102 437.432 989.648 440.884 989.648 445.141C989.648 449.399 993.102 452.851 997.362 452.851Z" fill="#828195"/>
<path d="M715.686 1513.45C719.946 1513.45 723.399 1510 723.399 1505.74C723.399 1501.48 719.946 1498.03 715.686 1498.03C711.426 1498.03 707.973 1501.48 707.973 1505.74C707.973 1510 711.426 1513.45 715.686 1513.45Z" fill="#A09EB5"/>
<path d="M698.33 1542.36C702.59 1542.36 706.044 1538.91 706.044 1534.65C706.044 1530.39 702.59 1526.94 698.33 1526.94C694.071 1526.94 690.617 1530.39 690.617 1534.65C690.617 1538.91 694.071 1542.36 698.33 1542.36Z" fill="#A09EB5"/>
<path d="M578.705 1501.89C582.965 1501.89 586.419 1498.44 586.419 1494.18C586.419 1489.92 582.965 1486.47 578.705 1486.47C574.446 1486.47 570.992 1489.92 570.992 1494.18C570.992 1498.44 574.446 1501.89 578.705 1501.89Z" fill="#A09EB5"/>
<path d="M596.061 1461.38C600.321 1461.38 603.774 1457.93 603.774 1453.67C603.774 1449.41 600.321 1445.96 596.061 1445.96C591.801 1445.96 588.348 1449.41 588.348 1453.67C588.348 1457.93 591.801 1461.38 596.061 1461.38Z" fill="#A09EB5"/>
<path d="M715.686 1370.76C719.946 1370.76 723.399 1367.31 723.399 1363.05C723.399 1358.79 719.946 1355.34 715.686 1355.34C711.426 1355.34 707.973 1358.79 707.973 1363.05C707.973 1367.31 711.426 1370.76 715.686 1370.76Z" fill="#A09EB5"/>
<path d="M671.299 1295.56C675.559 1295.56 679.012 1292.11 679.012 1287.85C679.012 1283.59 675.559 1280.14 671.299 1280.14C667.039 1280.14 663.586 1283.59 663.586 1287.85C663.586 1292.11 667.039 1295.56 671.299 1295.56Z" fill="#A09EB5"/>
<path d="M820.744 1090.26C819.173 1071.38 817.673 1053.53 816.066 1034.4C832.814 1039.15 850.169 1041.79 858.918 1054.5C862.703 1059.89 860.132 1064.71 856.275 1068.28C845.866 1077.7 833.826 1085.15 820.744 1090.26V1090.26Z" fill="#C7C6C6"/>
<path d="M715.686 1095.08C707.901 1087.94 720.4 1077.66 723.435 1072.38C721.221 1069.31 706.045 1060.35 711.829 1052.64C717.614 1044.93 736.826 1054.57 738.861 1070.02C740.54 1083.48 727.292 1105.36 715.686 1095.08Z" fill="#C7C6C6"/>
<path d="M791.816 1099.86C784.246 1090.3 778.711 1044.79 783.496 1031.37C791.102 1040.97 796.637 1086.44 791.816 1099.86Z" fill="#C7C6C6"/>
<path d="M806.708 1090.94C799.566 1078.48 797.352 1048.75 803.137 1035.94C810.064 1050.57 812.1 1080.41 806.708 1090.94Z" fill="#C7C6C6"/>
<path d="M765.714 1039.08C772.392 1049.36 774.677 1073.09 771.428 1094.83C762 1083.44 761.965 1052.61 765.714 1039.08Z" fill="#C7C6C6"/>
<path d="M748.29 1051.86C751.628 1056.68 753.662 1062.28 754.194 1068.13C754.726 1073.97 753.738 1079.85 751.325 1085.19C744.04 1078.02 742.469 1063.96 748.29 1051.86Z" fill="#C7C6C6"/>
<path d="M829.527 1056.43C832.722 1056.43 835.312 1053.84 835.312 1050.64C835.312 1047.45 832.722 1044.86 829.527 1044.86C826.332 1044.86 823.742 1047.45 823.742 1050.64C823.742 1053.84 826.332 1056.43 829.527 1056.43Z" fill="#4E4D4D"/>
<path d="M898.981 729.708C900.16 715.895 906.123 707.008 912.908 695.409C918.615 684.528 923.394 673.186 927.192 661.502C927.656 660.288 928.156 659.075 928.62 657.933C922.166 656.503 915.588 655.702 908.98 655.541C889.233 655.541 804.352 703.796 804.352 729.172C804.352 744.984 842.882 782.923 871.628 803.089C874.672 794.298 878.773 785.908 883.841 778.105C887.431 763.828 892.73 750.034 899.624 737.024C898.924 734.653 898.706 732.165 898.981 729.708V729.708Z" fill="url(#paint9_linear_1_792)"/>
<path d="M894.447 747.91C859.238 742.235 808.316 726.674 808.316 726.674C808.316 726.674 846.49 762.365 884.806 774.572C887.268 765.431 890.493 756.512 894.447 747.91V747.91Z" fill="#BB7314"/>
<path d="M1212.97 17.2746L783.889 965.413L1094.95 974.55L646.301 1976.37L1132.66 955.526L816.063 945.497L1212.97 17.2746Z" fill="#010101"/>
<path d="M738.173 298.04C740.859 306.954 737.745 312.754 728.831 315.44L683.201 329.19C674.537 331.801 668.861 328.65 666.175 319.736L630.167 200.238C627.462 191.262 630.442 185.468 639.107 182.857L684.736 169.108C693.65 166.422 699.46 169.567 702.165 178.543L712.477 212.765L690.691 219.33L681.984 190.438L653.653 198.975L686.421 307.719L714.753 299.182L705.483 268.419L727.269 261.854L738.173 298.04Z" fill="white"/>
<path d="M835.206 277.092C837.072 286.213 833.476 291.7 824.419 293.553L775.816 303.496C766.95 305.309 761.584 301.656 759.719 292.535L734.705 170.262C732.826 161.077 736.32 155.578 745.186 153.764L793.789 143.822C802.846 141.969 808.314 145.635 810.193 154.82L835.206 277.092ZM811.683 276.123L788.921 164.853L758.209 171.136L780.971 282.406L811.683 276.123Z" fill="white"/>
<path d="M935.868 278.875L913.354 281.413L905.544 253.106L877.111 256.311L875.799 285.647L853.382 288.174L853.339 287.786L865.644 132.795L889.516 130.104L935.868 278.875ZM900.143 233.962L881.357 166.697L877.92 236.467L900.143 233.962Z" fill="white"/>
<path d="M1026.48 262.211C1026.7 271.518 1022.16 276.282 1012.85 276.502L965.208 277.628C956.161 277.842 951.527 273.295 951.307 263.988L948.358 139.218C948.137 129.846 952.549 125.052 961.596 124.839L1009.24 123.713C1018.55 123.493 1023.31 128.069 1023.53 137.441L1024.38 173.173L1001.63 173.711L1000.92 143.544L971.335 144.243L974.019 257.785L1003.6 257.086L1002.84 224.966L1025.59 224.429L1026.48 262.211Z" fill="white"/>
<path d="M1124.46 281.729L1101.46 280.18L1106.07 211.781L1075.18 209.7L1070.58 278.1L1047.78 276.564L1058.05 124.077L1080.85 125.613L1076.61 188.459L1107.5 190.54L1111.74 127.694L1134.73 129.243L1124.46 281.729Z" fill="white"/>
<path d="M1169.31 287.942L1146.67 284.877L1167.17 133.426L1189.81 136.491L1169.31 287.942Z" fill="white"/>
<path d="M1266.68 306.176L1247.06 302.164L1230.46 200.585C1230.48 205.373 1230.22 209.074 1229.69 211.689L1212.62 295.118L1190.81 290.655L1221.44 140.924L1241.05 144.937L1258.04 244.602C1258.02 239.814 1258.28 236.113 1258.82 233.498L1275.49 151.983L1297.31 156.445L1266.68 306.176Z" fill="white"/>
<path d="M1363.16 319.72C1360.47 328.634 1354.67 331.748 1345.76 329.062L1299.75 315.199C1291.09 312.588 1288.1 306.826 1290.79 297.912L1326.79 178.414C1329.5 169.438 1335.28 166.284 1344.13 168.951L1389.85 182.729C1398.77 185.415 1401.87 191.246 1399.17 200.222L1389.76 231.453L1367.78 224.831L1375.59 198.931L1347.07 190.337L1314.3 299.082L1342.82 307.675L1355.16 266.721L1338.89 261.818L1344.5 243.211L1382.74 254.735L1363.16 319.72Z" fill="white"/>
<path d="M719.331 1775.95C717.961 1780.57 714.851 1785.21 710.002 1789.89L648.889 1848.26L693.736 1861.56L688.043 1880.75L616.982 1859.68L621.008 1846.1L696.509 1773.56L704.534 1746.5L677.851 1738.59L669.77 1765.83L648.33 1759.48L657.993 1726.89C660.622 1718.03 666.399 1714.92 675.325 1717.57L718.299 1730.32C727.224 1732.96 730.373 1738.72 727.744 1747.58L719.331 1775.95Z" fill="white"/>
<path d="M790.917 1889.95C788.949 1899.05 783.479 1902.63 774.507 1900.69L727.927 1890.62C719.082 1888.7 715.643 1883.2 717.61 1874.1L743.983 1752.11C745.964 1742.95 751.473 1739.34 760.509 1741.3L806.803 1751.3C815.775 1753.24 819.271 1758.8 817.29 1767.96L790.917 1889.95ZM770.255 1879.68L794.255 1768.67L764.761 1762.3L740.761 1873.31L770.255 1879.68Z" fill="white"/>
<path d="M902.864 1810.24C902.203 1815.01 899.827 1820.07 895.735 1825.42L844.085 1892.31L890.421 1898.72L887.676 1918.55L814.255 1908.39L816.196 1894.37L879.942 1811.3L883.811 1783.35L856.242 1779.53L852.346 1807.68L830.194 1804.62L834.853 1770.95C836.12 1761.8 841.365 1757.86 850.587 1759.13L894.988 1765.28C904.21 1766.55 908.187 1771.77 906.92 1780.93L902.864 1810.24Z" fill="white"/>
<path d="M993.635 1816.83C993.326 1821.64 991.328 1826.86 987.639 1832.5L941.037 1903L987.718 1905.99L986.437 1925.97L912.468 1921.23L913.374 1907.1L970.853 1819.58L972.66 1791.42L944.885 1789.63L943.066 1817.99L920.749 1816.56L922.924 1782.65C923.516 1773.42 928.458 1769.11 937.749 1769.7L982.481 1772.57C991.772 1773.17 996.121 1778.08 995.529 1787.31L993.635 1816.83Z" fill="white"/>
<path d="M1058.49 1877.9L1011.91 1877.85L1011.93 1857.44L1058.52 1857.49L1058.49 1877.9Z" fill="white"/>
<path d="M1149.37 1812.62C1149.67 1817.43 1148.34 1822.86 1145.39 1828.91L1108 1904.7L1154.69 1901.82L1155.93 1921.8L1081.95 1926.37L1081.07 1912.24L1127.12 1818.2L1125.38 1790.03L1097.6 1791.75L1099.35 1820.11L1077.03 1821.49L1074.93 1787.57C1074.36 1778.35 1078.72 1773.44 1088.02 1772.87L1132.76 1770.11C1142.05 1769.53 1146.98 1773.86 1147.55 1783.08L1149.37 1812.62Z" fill="white"/>
<path d="M1255.72 1895.15C1256.99 1904.37 1253.08 1909.61 1243.99 1910.87L1196.78 1917.38C1187.81 1918.62 1182.7 1914.63 1181.42 1905.4L1164.36 1781.77C1163.08 1772.48 1167.02 1767.21 1176.18 1765.94L1223.1 1759.47C1232.19 1758.21 1237.38 1762.23 1238.66 1771.52L1255.72 1895.15ZM1232.79 1892.6L1217.27 1780.09L1187.37 1784.21L1202.9 1896.72L1232.79 1892.6Z" fill="white"/>
<path d="M1333.55 1781.88C1334.56 1786.59 1334.07 1792.16 1332.06 1798.59L1306.48 1879.14L1352.21 1869.27L1356.43 1888.84L1283.97 1904.47L1280.99 1890.63L1312.38 1790.75L1306.43 1763.16L1279.22 1769.03L1285.22 1796.81L1263.36 1801.52L1256.19 1768.3C1254.24 1759.27 1257.81 1753.77 1266.92 1751.8L1310.73 1742.35C1319.83 1740.39 1325.36 1743.92 1327.31 1752.96L1333.55 1781.88Z" fill="white"/>
<path d="M1450.32 1847.75C1452.96 1856.68 1449.88 1862.45 1441.07 1865.05L1396.12 1878.32C1387.44 1880.89 1381.78 1877.7 1379.14 1868.77L1369.16 1834.96L1390.7 1828.6L1399.08 1856.98L1427.27 1848.66L1416.4 1811.85L1384.07 1801.34L1382.72 1796.75L1404.23 1770.64L1395.1 1739.73L1366.91 1748.06L1374.8 1774.75L1353.25 1781.11L1343.8 1749.08C1341.14 1740.09 1344.25 1734.28 1353.11 1731.67L1397.79 1718.47C1406.59 1715.87 1412.32 1719.07 1414.98 1728.06L1425.15 1762.53C1426.87 1768.33 1425.76 1773.55 1421.83 1778.17L1410.85 1790.98L1427.16 1795.53C1432.77 1797.07 1436.45 1800.77 1438.18 1806.64L1450.32 1847.75Z" fill="white"/>
</g>
<defs>
<linearGradient id="paint0_linear_1_792" x1="586.204" y1="961.308" x2="1329.03" y2="961.308" gradientUnits="userSpaceOnUse">
<stop stop-color="#3C3C3B"/>
<stop offset="0.05" stop-color="#31312F"/>
<stop offset="0.12" stop-color="#252524"/>
<stop offset="0.23" stop-color="#1F1F1D"/>
<stop offset="0.52" stop-color="#1D1D1B"/>
</linearGradient>
<radialGradient id="paint1_radial_1_792" cx="0" cy="0" r="1" gradientUnits="userSpaceOnUse" gradientTransform="translate(951.509 1111.21) scale(336.167 335.997)">
<stop stop-color="white"/>
<stop offset="0.33" stop-color="#F7F7F7"/>
<stop offset="0.84" stop-color="#E2E2E2"/>
<stop offset="1" stop-color="#DADADA"/>
</radialGradient>
<linearGradient id="paint2_linear_1_792" x1="1236.47" y1="1562.49" x2="1229.01" y2="1198.26" gradientUnits="userSpaceOnUse">
<stop stop-color="#FFEF26"/>
<stop offset="0.26" stop-color="#FDDF1E"/>
<stop offset="0.77" stop-color="#F8B50A"/>
<stop offset="1" stop-color="#F6A000"/>
</linearGradient>
<linearGradient id="paint3_linear_1_792" x1="943.405" y1="815.331" x2="934.915" y2="655.862" gradientUnits="userSpaceOnUse">
<stop stop-color="#FFEF26"/>
<stop offset="0.22" stop-color="#FCD61A"/>
<stop offset="0.53" stop-color="#F9B90C"/>
<stop offset="0.81" stop-color="#F7A603"/>
<stop offset="1" stop-color="#F6A000"/>
</linearGradient>
<linearGradient id="paint4_linear_1_792" x1="649.874" y1="1562.81" x2="656.295" y2="1198.19" gradientUnits="userSpaceOnUse">
<stop stop-color="#FFEF26"/>
<stop offset="0.26" stop-color="#FDDF1E"/>
<stop offset="0.77" stop-color="#F8B50A"/>
<stop offset="1" stop-color="#F6A000"/>
</linearGradient>
<linearGradient id="paint5_linear_1_792" x1="586.81" y1="957.275" x2="1330.42" y2="957.275" gradientUnits="userSpaceOnUse">
<stop stop-color="#3D3D3B"/>
<stop offset="0.04" stop-color="#323230"/>
<stop offset="0.12" stop-color="#272725"/>
<stop offset="0.22" stop-color="#20201E"/>
<stop offset="0.52" stop-color="#1E1E1C"/>
</linearGradient>
<radialGradient id="paint6_radial_1_792" cx="0" cy="0" r="1" gradientUnits="userSpaceOnUse" gradientTransform="translate(984.326 1111.18) scale(351.522 351.345)">
<stop stop-color="white"/>
<stop offset="0.33" stop-color="#F7F7F7"/>
<stop offset="0.82" stop-color="#E2E2E2"/>
<stop offset="1" stop-color="#D9D9D9"/>
</radialGradient>
<linearGradient id="paint7_linear_1_792" x1="927.051" y1="1056.6" x2="1402.63" y2="1056.6" gradientUnits="userSpaceOnUse">
<stop stop-color="#3D3D3B"/>
<stop offset="0.04" stop-color="#323230"/>
<stop offset="0.12" stop-color="#272725"/>
<stop offset="0.22" stop-color="#20201E"/>
<stop offset="0.52" stop-color="#1E1E1C"/>
</linearGradient>
<linearGradient id="paint8_linear_1_792" x1="650.516" y1="1562.96" x2="656.973" y2="1197.94" gradientUnits="userSpaceOnUse">
<stop stop-color="#FEEC31"/>
<stop offset="0.27" stop-color="#FCDC28"/>
<stop offset="0.79" stop-color="#F8B210"/>
<stop offset="1" stop-color="#F6A006"/>
</linearGradient>
<linearGradient id="paint9_linear_1_792" x1="873.163" y1="817.473" x2="864.673" y2="657.789" gradientUnits="userSpaceOnUse">
<stop stop-color="#FEEC31"/>
<stop offset="0.2" stop-color="#FCD625"/>
<stop offset="0.52" stop-color="#F9B914"/>
<stop offset="0.8" stop-color="#F7A60A"/>
<stop offset="1" stop-color="#F6A006"/>
</linearGradient>
<clipPath id="clip0_1_792">
<rect width="2048" height="2048" fill="white"/>
</clipPath>
</defs>
</svg>
